<svg width="139" height="62" viewBox="0 0 139 62" fill="none" xmlns="http://www.w3.org/2000/svg">
<g clip-path="url(#clip0_53_125)">
<path d="M98.4487 5.48709V7.72657H117.767C119.032 7.72657 120.981 7.72657 122.268 9.01895C123.556 10.3169 123.556 12.2445 123.556 13.5702V32.9509C123.556 34.2043 123.556 36.1708 122.268 37.452C120.981 38.7389 119.032 38.7389 117.767 38.7389H108.432C106.828 38.7389 104.725 38.7389 103.909 36.9562C103.127 35.1902 104.253 33.5859 105.219 32.2991L117.767 15.4978H98.4487L90.7566 25.8258C89.4525 27.5918 88.3313 29.0457 88.3313 30.9899C88.3313 32.9509 89.3637 34.3491 90.7566 36.1708L92.6768 38.7389C94.5805 41.3404 96.5173 43.9196 99.0923 45.2009C101.678 46.4877 104.725 46.4877 108.921 46.4877H117.29C122.096 46.4877 129.355 46.4877 134.178 41.6579C139 36.8002 139 29.7143 139 27.1183V19.3694C139 16.7679 139 9.6875 134.178 4.82977C129.355 0 122.096 0 117.29 0H103.909C102.65 0 101.018 0 99.7362 1.28677C98.4487 2.56249 98.4487 4.17244 98.4487 5.48709Z" fill="#EE3524"/>
<path d="M75.2773 15.4995H94.579L71.4202 46.5007H52.1128L75.2773 15.4995Z" fill="#EE3524"/>
<path d="M0 20.9881C0 19.6902 0 18.0635 1.28174 16.7711C2.58042 15.501 4.1677 15.501 5.46638 15.501H37.7877C41.9832 15.501 45.0578 15.501 47.622 16.7711C50.1858 18.0635 52.1114 20.6538 54.0649 23.2387L55.9685 25.8235C57.356 27.6619 58.405 29.049 58.405 30.9876C58.405 32.9485 57.2838 34.4192 55.9685 36.174L48.2489 46.502H28.9527L41.5005 29.7174C42.4716 28.4306 43.604 26.8096 42.7937 25.0046C41.9832 23.2387 39.8966 23.2387 38.2761 23.2387H23.1808V61.9999H7.71959V23.2387H0V20.9881Z" fill="#EE3524"/>
</g>
<defs>
<clipPath id="clip0_53_125">
<rect width="139" height="62" fill="white"/>
</clipPath>
</defs>
</svg>
